<?xml version="1.0" ?><!DOCTYPE svg  PUBLIC '-//W3C//DTD SVG 1.1//EN'  'http://www.w3.org/Graphics/SVG/1.1/DTD/svg11.dtd'><svg height="20px" style="shape-rendering:geometricPrecision; text-rendering:geometricPrecision; image-rendering:optimizeQuality; fill-rule:evenodd; clip-rule:evenodd" version="1.1" viewBox="0 0 846.66 846.66" width="20px" xml:space="preserve" xmlns="http://www.w3.org/2000/svg" xmlns:xlink="http://www.w3.org/1999/xlink"><defs><style type="text/css">
   <![CDATA[
   ]]>
  </style></defs><g id="Layer_x0020_1"><path class="fil0" d="M294.06 8.77l414.34 0c71.73,0 130.34,58.61 130.34,130.34l0 568.44c0,71.73 -58.61,130.34 -130.34,130.34l-679.72 0c-11.46,0 -20.76,-9.3 -20.76,-20.76l0 -381.82c0,-11.46 9.3,-20.76 20.76,-20.76l135.04 0 0 -275.44c0,-71.73 58.61,-130.34 130.34,-130.34zm65.06 118.14l284.22 0c11.47,0 20.76,9.29 20.76,20.76l0 284.22c0,11.46 -9.29,20.76 -20.76,20.76l-284.22 0c-11.46,0 -20.75,-9.3 -20.75,-20.76l0 -284.22c0,-11.47 9.29,-20.76 20.75,-20.76zm263.47 41.52l-242.71 0 0 242.7 242.71 0 0 -242.7zm-284.01 426.33c-27.3,0 -27.3,-41.52 0,-41.52l325.31 0c27.3,0 27.3,41.52 0,41.52l-325.31 0zm0 113c-27.3,0 -27.3,-41.52 0,-41.52l325.31 0c27.3,0 27.3,41.52 0,41.52l-325.31 0zm-174.86 88.61l0 -340.3 -114.28 0 0 340.3 114.28 0zm544.68 -746.08l-414.34 0c-48.81,0 -88.82,40.01 -88.82,88.82l0 657.26 503.16 0c48.81,0 88.82,-40.01 88.82,-88.82l0 -568.44c0,-48.81 -40.01,-88.82 -88.82,-88.82z"/></g></svg>